<?xml version="1.0" encoding="UTF-8"?>
<svg id="Layer_1" data-name="Layer 1" xmlns="http://www.w3.org/2000/svg" viewBox="0 0 1563 625">
  <defs>
    <style>
      .cls-1 {
        fill: #fff;
      }
    </style>
  </defs>
  <path class="cls-1" d="M79.51,49.71l.49,138.57L215.64,49.71h58.62L121.19,207.16l155.01,161.33h-62.5c-38.31-38.23-75.13-78.06-112.86-116.78-3.21-3.3-17.45-18.61-19.9-19.83-1.6-.79-1.44,1.73-1.44,2.41v130.81c0,.49,1.53,2.04.97,3.39h-47.48V49.71h46.52Z"/>
  <path class="cls-1" d="M1109.48,347.18v110.46h-46.51V139.82h35.85l5.82,26.16c1.47.4,1.61-.39,2.43-.95,3.82-2.64,8.29-8.19,12.75-11.48,38.07-28.06,98.42-23.05,131.65,10.46,41.9,42.25,43.22,130.68,4.82,175.43-36.42,42.43-105.99,45.64-146.81,7.74ZM1166.46,175.96c-79.7,6.16-77.78,149.85-2.21,156.66,96.51,8.69,94.46-163.79,2.21-156.66h0Z"/>
  <path class="cls-1" d="M895.03,135.34c81.54-1.81,129.44,58.62,120.46,137.7-6.53,57.51-49.46,96.97-107.07,100.28-165.02,9.48-167.51-234.56-13.39-237.98h0ZM892.25,180.81c-83.76,6.97-80.63,141.15-1.3,147.03,52.41,3.88,81.92-33.41,77.06-83.84-3.93-40.75-34.93-66.59-75.76-63.19Z"/>
  <path class="cls-1" d="M481.62,368.49h-34.88l-3.89-16.47c-25.22,24.07-65.65,28.55-98.05,18.13-40.37-12.99-56.76-52.67-47.77-92.75,13.34-59.46,91.01-74.16,137.11-43.59v-24.71c0-8.81-10.93-23.61-19.01-27.49-23.91-11.48-62.62-1.17-86.05,8.57l-14.03-36.69c8.75-3.43,17.27-7.35,26.31-10.04,60.8-18.13,135.3-9.48,140.26,67.61v157.44h0ZM377.72,261.21c-25.32,2.85-41.58,23.37-32.76,48.7,11.67,33.5,84.6,31.24,89.07-6.92,4.13-35.17-27.13-45.06-56.31-41.78Z"/>
  <path class="cls-1" d="M738.38,368.49h-46.51l.02-144.9c1.81-66.41-81.44-42.66-106.6-7.71v152.61h-46.51v-228.67h35.85l6.79,31c1.47.4,1.61-.37,2.43-.95,24.84-17.34,38.82-30.8,71.7-33.91,60.36-5.72,80.19,22.41,82.82,78.96v153.57h.01Z"/>
  <polygon class="cls-1" points="1355.11 139.82 1418.09 277.42 1480.58 139.82 1530 139.82 1386.6 457.63 1337.18 457.63 1393.16 332.32 1306.18 139.82 1355.11 139.82"/>
  <polygon class="cls-1" points="685.09 446.98 723.36 554.54 761.64 446.98 781.02 446.98 736.35 572.84 711.7 573.01 665.71 446.98 685.09 446.98"/>
  <path class="cls-1" d="M877.91,533.21h-69.76c1.88,18.08,11.17,26.68,29.59,25.23,11.65-.92,16.17-7.41,23.36-15.44,8.62,6.43,17.73,4.92,8.59,16.38-20.75,26.01-68.15,19.28-78.03-14.05-11.21-37.83,14.05-73.3,55.25-63,14.8,3.7,31,21.22,31,36.83v14.05h0ZM857.55,517.71c-2.92-29.5-45.88-28.96-48.43,0h48.43Z"/>
  <path class="cls-1" d="M1311.99,533.21h-69.76c1.88,18.08,11.17,26.68,29.59,25.23,11.65-.92,16.17-7.41,23.36-15.44,8.62,6.43,17.73,4.92,8.59,16.38-20.75,26.01-68.15,19.28-78.03-14.05-11.21-37.83,14.05-73.3,55.25-63,14.8,3.7,31,21.22,31,36.83v14.05h0ZM1291.63,517.71c-2.92-29.5-45.88-28.96-48.43,0h48.43Z"/>
  <path class="cls-1" d="M1081.38,482.83v63.47c0,2.99,4.11,7.33,6.89,8.62,11.56,5.34,26.82-2.87,34.78-11.52v-60.56h18.41v90.11h-14.53l-1.94-11.62c-.57-.69-8.04,5.75-9.39,6.59-15.24,9.43-43.08,11.97-50.46-8.26-2.11-5.77-2.85-15.71-3.16-22.03-.9-17.98.75-36.73.04-54.78h19.38l-.02-.02Z"/>
  <path class="cls-1" d="M973.83,572.94h-18.41c-1.09-18.46,1.36-38.36.04-56.72-.27-3.74-.88-8.55-2.95-11.59-8.17-12.02-33.27-2.43-39.08,8.39-.98,19.89-1.34,40.17.33,59.91h-19.38v-90.11h14.53l3.39,11.61c14.29-14.96,51.13-22.8,58.89,2.17.76,2.45,2.64,9.81,2.64,11.9v64.43h0Z"/>
  <path class="cls-1" d="M1324.59,554.54l14.06-8.51c8.33,8.32,12.99,14.39,26.1,12.31,7.99-1.27,11.25-12.03,4.77-17.26-11.17-9.02-39.11-6.26-41.93-26.86-5.22-38.1,45.46-44.01,62.85-17.46l-13.22,10.15c-5.9-3.99-11.53-9.44-19.2-9.64-14.87-.4-20.55,13.74-4.61,20.2,11.72,4.75,34.46,6.71,37.01,23.06,6.2,39.72-52.07,45.76-65.82,14.01h-.01Z"/>
  <path class="cls-1" d="M1023.25,462.48v18.89l1.45,1.45h17.93v17.44h-19.38v47.96c0,9.44,12.95,9.26,19.38,7.27v17.44c-12.86,4.62-30.15,1.51-35.65-12.31-.41-1.03-2.14-6.98-2.14-7.55v-52.81l-14.11-.91c-.3-3.03-1.72-15.45,1.17-16.4l12.9-.18,2.95-20.3h15.5Z"/>
  <path class="cls-1" d="M1213.16,481.86v17.44h-14.05c-3.86,0-14.58,5.33-15.49,9.56.4,18.22,1.06,36.68.5,54.93-.08,2.7-.03,7.29-1.49,9.15h-17.93v-90.11h14.53c.56,2.32.58,5.02,1,7.25.16.86-.33,2.22,1.41,1.46,1.32-.58,5.63-5.24,7.94-6.6,7.28-4.29,15.3-5.29,23.56-3.08h.02Z"/>
</svg>